#!OML:ASF X:\für Bonn\!DataBase\2005_08_10_Bjorn_Final\c3d\bjorn.ASF
:FULLY-SPECIFIED
:DEGREES
476
root 0.334821 1.86045 18.1016 -441.318 -174.278 -704.496
lowerback 27.3596 8.32811 1.60825
upperback 26.3097 3.09278 2.17851
thorax 14.8406 -2.55122 0.0507943
lowerneck 19.4018 -3.7087 -3.87121
upperneck 13.5822 -8.0559 1.46182
head 1.42717 -5.12332 1.44051
rclavicle 3.93594e-014 -6.67916e-014
rhumerus -163.937 -175.855 111.261
rradius 32.1501
rwrist -5.09804
rhand -1.91155 6.43828
rfingers 7.12502
rthumb 23.7582 -22.113
lclavicle 3.93594e-014 -6.67916e-014
lhumerus 28.8777 -31.5496 64.314
lradius 37.3996
lwrist -4.60154
lhand -11.5264 -370.96
lfingers 7.12502
lthumb 14.5134 18.512
rfemur -54.8219 -15.8243 10.9555
rtibia 90.19
rfoot 24.1148 4.27053
rtoes -3.60929
lfemur 167.004 179.231 164.302
ltibia 11.7625
lfoot 11.0615 7.77717
ltoes 8.15056
477
root 0.331076 1.85431 18.1069 -441.572 -174.393 -704.339
lowerback 26.9391 8.32364 1.50326
upperback 26.1814 3.21983 2.15424
thorax 14.855 -2.43456 0.0892165
lowerneck 19.2346 -3.71597 -3.76971
upperneck 13.8864 -8.08566 1.51756
head 1.55487 -5.15179 1.42816
rclavicle 5.96354e-014 -9.22361e-014
rhumerus -164.167 -175.65 111.047
rradius 31.7607
rwrist -4.75044
rhand -2.42882 6.55651
rfingers 7.12502
rthumb 23.262 -22.0584
lclavicle 5.96354e-014 -9.22361e-014
lhumerus 28.8422 -32.1342 64.4974
lradius 37.3916
lwrist -5.05248
lhand -11.7131 -371.723
lfingers 7.12502
lthumb 14.3335 17.762
rfemur -53.5926 -15.4567 11.0834
rtibia 88.1496
rfoot 23.6185 4.05286
rtoes -4.10885
lfemur 167.039 179.336 164.404
ltibia 12.1132
lfoot 11.0529 7.39352
ltoes 7.9797
478
root 0.32822 1.84769 18.1099 -441.834 -174.523 -704.197
lowerback 26.5257 8.32088 1.38084
upperback 26.0397 3.34951 2.13305
thorax 14.8484 -2.31848 0.14194
lowerneck 19.0574 -3.69691 -3.69998
upperneck 14.1953 -8.08835 1.58068
head 1.68664 -5.16848 1.42232
rclavicle 3.65764e-014 -3.81667e-014
rhumerus -164.406 -175.55 110.881
rradius 31.3657
rwrist -4.50744
rhand -2.89249 6.67921
rfingers 7.12502
rthumb 22.8171 -21.9912
lclavicle 3.65764e-014 -3.81667e-014
lhumerus 28.7991 -32.7398 64.6492
lradius 37.3824
lwrist -5.48446
lhand -11.906 -372.38
lfingers 7.12502
lthumb 14.1476 17.1182
rfemur -52.3418 -15.0922 11.2264
rtibia 86.0888
rfoot 23.1325 3.83938
rtoes -4.90468
lfemur 167.068 179.358 164.516
ltibia 12.4917
lfoot 11.0761 6.95021
ltoes 7.91594
479
root 0.325253 1.84122 18.1131 -442.092 -174.606 -704.056
lowerback 26.0999 8.31787 1.21215
upperback 25.8908 3.47815 2.09302
thorax 14.8364 -2.20532 0.20085
lowerneck 18.8753 -3.69482 -3.5713
upperneck 14.4941 -8.09816 1.6016
head 1.81211 -5.18469 1.39319
rclavicle 3.81667e-014 -2.22639e-014
rhumerus -164.661 -175.518 110.74
rradius 30.9859
rwrist -4.37595
rhand -3.25245 6.75755
rfingers 7.12502
rthumb 22.4717 -21.955
lclavicle 3.81667e-014 -2.22639e-014
lhumerus 28.7324 -33.2998 64.8269
lradius 37.343
lwrist -6.05744
lhand -12.1144 -373.019
lfingers 7.12502
lthumb 13.9468 16.4933
rfemur -51.0808 -14.7627 11.3139
rtibia 84.0047
rfoot 22.6615 3.59316
rtoes -5.49753
lfemur 167.098 179.391 164.577
ltibia 12.8726
lfoot 11.0787 6.53782
ltoes 7.93418
480
root 0.321785 1.83403 18.116 -442.36 -174.708 -703.92
lowerback 25.6659 8.31439 1.07522
upperback 25.7531 3.60552 2.05499
thorax 14.8483 -2.0915 0.245062
lowerneck 18.6563 -3.70242 -3.43657
upperneck 14.7665 -8.10967 1.62658
head 1.93446 -5.19699 1.364
rclavicle -4.92986e-014 -6.36111e-015
rhumerus -164.888 -175.471 110.593
rradius 30.6023
rwrist -4.2225
rhand -3.51903 6.76989
rfingers 7.12502
rthumb 22.2158 -21.9734
lclavicle -4.92986e-014 -6.36111e-015
lhumerus 28.7186 -33.8995 64.9157
lradius 37.3337
lwrist -6.60298
lhand -12.3898 -373.514
lfingers 7.12502
lthumb 13.6814 16.0167
rfemur -49.7949 -14.4471 11.4153
rtibia 81.895
rfoot 22.229 3.36939
rtoes -5.92549
lfemur 167.139 179.51 164.663
ltibia 13.2525
lfoot 11.0323 6.19684
ltoes 7.73049
481
root 0.318007 1.82737 18.118 -442.625 -174.791 -703.775
lowerback 25.1686 8.31868 0.90514
upperback 25.6493 3.73026 2.04772
thorax 14.9302 -1.99306 0.341052
lowerneck 18.4045 -3.71914 -3.32065
upperneck 14.9934 -8.11898 1.61887
head 2.04554 -5.20268 1.32745
rclavicle 3.97569e-014 -4.77083e-014
rhumerus -165.065 -175.493 110.544
rradius 30.2503
rwrist -4.1429
rhand -3.68416 6.80842
rfingers 7.12502
rthumb 22.0572 -21.9537
lclavicle 3.97569e-014 -4.77083e-014
lhumerus 28.7692 -34.443 65.0473
lradius 37.2741
lwrist -7.18416
lhand -12.7563 -374.046
lfingers 7.12502
lthumb 13.3281 15.5076
rfemur -48.5118 -14.1788 11.4956
rtibia 79.7794
rfoot 21.8323 3.14407
rtoes -6.20546
lfemur 167.19 179.59 164.728
ltibia 13.6053
lfoot 11.0008 5.84291
ltoes 7.76031
482
root 0.314485 1.82027 18.1195 -442.897 -174.874 -703.657
lowerback 24.6734 8.33077 0.742265
upperback 25.5618 3.85773 2.02423
thorax 15.0368 -1.89632 0.414569
lowerneck 18.0824 -3.74671 -3.18855
upperneck 15.2518 -8.13477 1.58321
head 2.17661 -5.20933 1.27617
rclavicle -5.56597e-015 5.08889e-014
rhumerus -165.21 -175.602 110.527
rradius 29.9475
rwrist -4.21197
rhand -3.7563 6.79471
rfingers 7.12502
rthumb 21.988 -21.9755
lclavicle -5.56597e-015 5.08889e-014
lhumerus 28.9389 -35.0359 65.0169
lradius 37.2104
lwrist -7.61678
lhand -13.1839 -374.492
lfingers 7.12502
lthumb 12.9159 15.0887
rfemur -47.2181 -13.8893 11.5699
rtibia 77.6675
rfoot 21.437 2.9325
rtoes -6.16118
lfemur 167.141 179.731 164.801
ltibia 14.1775
lfoot 10.838 5.51593
ltoes 7.91771
483
root 0.311445 1.81382 18.1205 -443.161 -174.954 -703.533
lowerback 24.1242 8.34984 0.567343
upperback 25.5071 3.98474 2.01218
thorax 15.2126 -1.8095 0.507681
lowerneck 17.7793 -3.78572 -3.0644
upperneck 15.4012 -8.148 1.56247
head 2.26849 -5.20669 1.23466
rclavicle -4.37326e-014 -3.18055e-015
rhumerus -165.302 -175.761 110.55
rradius 29.6852
rwrist -4.33383
rhand -3.77186 6.77686
rfingers 7.12502
rthumb 21.973 -21.9951
lclavicle -4.37326e-014 -3.18055e-015
lhumerus 29.1719 -35.5638 64.9846
lradius 37.1387
lwrist -8.18621
lhand -13.6331 -374.903
lfingers 7.12502
lthumb 12.4828 14.7047
rfemur -45.9354 -13.618 11.6431
rtibia 75.5544
rfoot 21.0287 2.82094
rtoes -6.07774
lfemur 167.097 179.862 164.873
ltibia 14.7303
lfoot 10.6779 5.20983
ltoes 8.06054
484
root 0.306899 1.80585 18.1006 -443.439 -175.021 -703.41
lowerback 23.58 8.35313 0.36811
upperback 25.436 4.09601 1.98667
thorax 15.3664 -1.73008 0.603856
lowerneck 17.5914 -3.81071 -2.93259
upperneck 15.5226 -8.15125 1.51368
head 2.33135 -5.20314 1.18714
rclavicle 3.57812e-014 -1.04958e-013
rhumerus -165.423 -175.979 110.562
rradius 29.4676
rwrist -4.45879
rhand -3.64953 6.74998
rfingers 7.12502
rthumb 22.0905 -22.0082
lclavicle 3.57812e-014 -1.04958e-013
lhumerus 29.3544 -36.0326 65.0158
lradius 36.9923
lwrist -8.86739
lhand -14.1998 -375.396
lfingers 7.12502
lthumb 11.9364 14.2441
rfemur -44.7277 -13.398 11.6835
rtibia 73.5315
rfoot 20.6653 2.73384
rtoes -5.40394
lfemur 167.065 180.052 164.942
ltibia 15.2703
lfoot 10.4949 4.98724
ltoes 8.43115
485
root 0.303563 1.79943 18.1006 -443.695 -175.108 -703.314
lowerback 22.9754 8.36654 0.159825
upperback 25.3816 4.21909 1.95664
thorax 15.5746 -1.64938 0.701208
lowerneck 17.4939 -3.83694 -2.80982
upperneck 15.5337 -8.15157 1.50515
head 2.34454 -5.19454 1.16014
rclavicle 3.33958e-014 -1.08139e-013
rhumerus -165.522 -176.312 110.613
rradius 29.3208
rwrist -4.75975
rhand -3.54519 6.67349
rfingers 7.12502
rthumb 22.1906 -22.0728
lclavicle 3.33958e-014 -1.08139e-013
lhumerus 29.607 -36.4874 64.9546
lradius 36.8591
lwrist -9.55497
lhand -14.7655 -375.853
lfingers 7.12502
lthumb 11.3909 13.8171
rfemur -43.4473 -13.1409 11.7596
rtibia 71.4121
rfoot 20.2465 2.65904
rtoes -4.65273
lfemur 167.055 180.191 165.017
ltibia 15.757
lfoot 10.3283 4.73802
ltoes 8.58652
486
root 0.299635 1.79252 18.1021 -443.964 -175.161 -703.207
lowerback 22.3364 8.37013 -0.0801261
upperback 25.3582 4.31916 1.91267
thorax 15.8432 -1.59122 0.803175
lowerneck 17.3755 -3.86238 -2.6627
upperneck 15.5417 -8.14083 1.45379
head 2.35629 -5.17835 1.11427
rclavicle 2.46493e-014 -7.95139e-014
rhumerus -165.544 -176.704 110.655
rradius 29.182
rwrist -5.09336
rhand -3.40931 6.56647
rfingers 7.12502
rthumb 22.3211 -22.1642
lclavicle 2.46493e-014 -7.95139e-014
lhumerus 29.9443 -36.9598 64.7094
lradius 36.8178
lwrist -10.1168
lhand -15.3405 -376.308
lfingers 7.12502
lthumb 10.8364 13.3927
rfemur -42.1507 -12.9127 11.7903
rtibia 69.2993
rfoot 19.804 2.62354
rtoes -3.92497
lfemur 167.073 180.389 165.059
ltibia 16.2247
lfoot 10.1454 4.52649
ltoes 8.79081
487
root 0.295565 1.78617 18.1022 -444.219 -175.243 -703.114
lowerback 21.6915 8.35872 -0.327026
upperback 25.2995 4.41501 1.8658
thorax 16.073 -1.5291 0.911464
lowerneck 17.413 -3.8534 -2.54294
upperneck 15.4438 -8.09456 1.45496
head 2.31037 -5.14662 1.09708
rclavicle -2.62396e-014 9.54166e-015
rhumerus -165.609 -177.18 110.713
rradius 29.0836
rwrist -5.46802
rhand -3.20104 6.47418
rfingers 7.12502
rthumb 22.521 -22.2324
lclavicle -2.62396e-014 9.54166e-015
lhumerus 30.3121 -37.573 64.241
lradius 36.8734
lwrist -10.4811
lhand -15.8926 -376.644
lfingers 7.12502
lthumb 10.3038 13.0834
rfemur -40.8642 -12.6753 11.8563
rtibia 67.1707
rfoot 19.3639 2.57492
rtoes -2.96705
lfemur 167.186 180.572 165.132
ltibia 16.4779
lfoot 10.04 4.41097
ltoes 9.15507
488
root 0.292038 1.77955 18.103 -444.474 -175.313 -703.031
lowerback 21.0195 8.35563 -0.574211
upperback 25.2647 4.5179 1.80158
thorax 16.3548 -1.46858 1.00131
lowerneck 17.3774 -3.8554 -2.3803
upperneck 15.3624 -8.05083 1.4606
head 2.28 -5.11175 1.07138
rclavicle -7.95139e-015 9.54166e-015
rhumerus -165.596 -177.641 110.739
rradius 28.9741
rwrist -5.88289
rhand -3.01862 6.34943
rfingers 7.12502
rthumb 22.6961 -22.3359
lclavicle -7.95139e-015 9.54166e-015
lhumerus 30.8731 -38.3292 63.3923
lradius 37.0959
lwrist -10.6315
lhand -16.3891 -376.763
lfingers 7.12502
lthumb 9.82477 12.9877
rfemur -39.5924 -12.4424 11.9121
rtibia 65.0778
rfoot 18.9307 2.56798
rtoes -2.03315
lfemur 167.319 180.72 165.184
ltibia 16.6992
lfoot 9.98176 4.23608
ltoes 9.19862
489
root 0.287651 1.77333 18.1023 -444.712 -175.396 -702.951
lowerback 20.3296 8.34965 -0.80635
upperback 25.1981 4.6368 1.74165
thorax 16.6106 -1.39069 1.09294
lowerneck 17.3444 -3.87392 -2.20012
upperneck 15.3135 -8.03194 1.45728
head 2.2602 -5.0908 1.03981
rclavicle -2.38542e-014 -4.45278e-014
rhumerus -165.639 -178.098 110.779
rradius 28.9047
rwrist -6.29347
rhand -2.71865 6.1402
rfingers 7.12502
rthumb 22.984 -22.5096
lclavicle -2.38542e-014 -4.45278e-014
lhumerus 31.4067 -39.0767 62.5748
lradius 37.3309
lwrist -10.853
lhand -16.7673 -376.873
lfingers 7.12502
lthumb 9.45985 12.8949
rfemur -38.3787 -12.2465 11.9846
rtibia 63.0453
rfoot 18.5872 2.64903
rtoes -1.32972
lfemur 167.437 180.928 165.256
ltibia 16.9195
lfoot 9.84218 4.18324
ltoes 9.46128
490
root 0.283141 1.7674 18.1022 -444.963 -175.501 -702.894
lowerback 19.7695 8.31577 -1.03762
upperback 25.0051 4.75421 1.66116
thorax 16.6362 -1.28525 1.16759
lowerneck 17.4106 -3.8535 -2.05253
upperneck 15.3868 -8.00439 1.43738
head 2.26802 -5.08294 1.00824
rclavicle 3.97569e-014 -1.11319e-013
rhumerus -165.922 -178.705 110.864
rradius 28.8844
rwrist -6.74735
rhand -2.38874 5.97169
rfingers 7.12502
rthumb 23.3005 -22.6383
lclavicle 3.97569e-014 -1.11319e-013
lhumerus 31.6641 -39.8688 61.9015
lradius 37.5987
lwrist -11.1041
lhand -17.0895 -376.924
lfingers 7.12502
lthumb 9.149 12.858
rfemur -37.1826 -12.0514 12.0804
rtibia 61.0919
rfoot 18.2209 2.81095
rtoes -1.3577
lfemur 167.595 181.157 165.356
ltibia 17.1192
lfoot 9.67738 4.16489
ltoes 9.79833
